<svg width="100" height="100" viewBox="0 0 100 100" xmlns="http://www.w3.org/2000/svg">
<style>.Co2{fill:#ffffff}</style>
<path class="Co2" d="M23.5276 29.9741C20.2407 29.9741 17.5667 32.648 17.5667 35.9351C17.5667 39.222 20.2405 41.8962 23.5276 41.8962C26.8145 41.8962 29.4887 39.222 29.4887 35.9351C29.4885 32.6481 26.8145 29.9741 23.5276 29.9741ZM23.5276 38.7046C22.0004 38.7046 20.7583 37.4622 20.7583 35.9351C20.7583 34.4079 22.0004 33.1657 23.5276 33.1657C25.0547 33.1657 26.2971 34.4079 26.2971 35.9351C26.2969 37.4622 25.0545 38.7046 23.5276 38.7046Z"  />
<path class="Co2" d="M36.7549 12.6616C33.9346 12.6616 31.6403 14.956 31.6403 17.7763C31.6403 20.5966 33.9346 22.8909 36.7549 22.8909C39.5752 22.8909 41.8696 20.5966 41.8696 17.7763C41.8696 14.956 39.5752 12.6616 36.7549 12.6616ZM36.7551 19.6993C35.6946 19.6993 34.8321 18.8368 34.8321 17.7763C34.8321 16.7159 35.6949 15.8532 36.7551 15.8532C37.8155 15.8532 38.6781 16.7159 38.6781 17.7763C38.6781 18.8366 37.8157 19.6993 36.7551 19.6993Z"  />
<path class="Co2" d="M50.0147 83.3872C47.1944 83.3872 44.9 85.6815 44.9 88.5019C44.9 91.322 47.1944 93.6165 50.0147 93.6165C52.835 93.6165 55.1293 91.3222 55.1293 88.5019C55.1295 85.6815 52.835 83.3872 50.0147 83.3872ZM50.0147 90.4247C48.9543 90.4247 48.0916 89.5622 48.0916 88.5017C48.0916 87.4411 48.9543 86.5786 50.0147 86.5786C51.0748 86.5786 51.9377 87.4415 51.9377 88.5017C51.9377 89.5618 51.075 90.4247 50.0147 90.4247Z"  />
<path class="Co2" d="M74.5842 74.2421V39.2656C74.5842 38.3843 73.8698 37.6697 72.9883 37.6697C72.1071 37.6697 71.3926 38.3841 71.3926 39.2656V74.2421C67.4938 74.9908 64.5383 78.4253 64.5383 82.539C64.5383 87.1984 68.3292 90.989 72.9883 90.989C77.6477 90.989 81.4383 87.1982 81.4383 82.539C81.4385 78.4253 78.4829 74.9908 74.5842 74.2421ZM72.9885 87.7978C70.0891 87.7978 67.7301 85.4388 67.7301 82.5394C67.7301 79.64 70.0891 77.281 72.9885 77.281C75.8879 77.281 78.2469 79.64 78.2469 82.5394C78.2469 85.4388 75.8879 87.7978 72.9885 87.7978Z"  />
<path class="Co2" d="M95.2533 28.6887C94.8771 27.8916 93.9258 27.5508 93.1289 27.9266C92.3318 28.3027 91.9908 29.2539 92.3668 30.051C95.3236 36.3162 96.8228 43.0283 96.8228 50.0002C96.8228 51.2418 96.7709 52.483 96.6728 53.7205H80.6865V38.8289C80.6865 34.5838 77.233 31.1303 72.9879 31.1303C72.2643 31.1303 71.5426 31.2367 70.8473 31.4354C70.8248 31.442 70.8014 31.4465 70.7787 31.4531C71.8787 30.3711 72.5619 28.866 72.5619 27.2049C72.5619 23.918 69.8881 21.2439 66.601 21.2439H54.3793C52.8521 21.2439 51.61 20.0016 51.61 18.4744C51.61 16.9473 52.8521 15.7051 54.3793 15.7051H81.8613C83.7113 17.4238 85.4357 19.2826 86.9754 21.2854C87.8519 22.4256 88.6922 23.5973 89.4676 24.8094C89.9322 25.5355 90.9408 25.7604 91.6719 25.2934C92.4047 24.8254 92.6238 23.8203 92.1559 23.0891C91.8555 22.6195 91.5471 22.1551 91.2316 21.6961C89.0225 18.4836 86.448 15.5391 83.5625 12.9264C74.3568 4.59082 62.4426 0 50.0146 0C38.427 0 27.1316 4.05508 18.2096 11.4182C17.5299 11.9793 17.4336 12.985 17.9945 13.6648C18.5557 14.3445 19.5613 14.4408 20.2412 13.8799C28.5926 6.9873 39.1666 3.1916 50.0146 3.1916C60.1844 3.1916 69.9865 6.47559 78.049 12.5139H54.3799C51.093 12.5139 48.4189 15.1879 48.4189 18.4748C48.4189 21.7617 51.093 24.4359 54.3799 24.4359H66.6016C68.1287 24.4359 69.3709 25.6781 69.3709 27.2053C69.3709 28.7324 68.1287 29.9748 66.6016 29.9748H42.6773C39.3904 29.9748 36.7164 32.6488 36.7164 35.9357C36.7164 39.2227 39.3902 41.8967 42.6773 41.8967H65.2898V47.4354H53.1574C50.5445 47.4354 48.4188 49.5611 48.4188 52.174C48.4188 54.7869 50.5445 56.9127 53.1574 56.9127H65.2898V68.6311C65.1332 68.7182 64.9783 68.8074 64.8254 68.8994C64.2309 69.2564 63.6643 69.6512 63.1271 70.0781C62.0658 68.3912 60.1863 67.2719 58.0811 67.2719H25.4328C23.9057 67.2719 22.6635 66.0295 22.6635 64.5023C22.6635 62.9752 23.9057 61.733 25.4328 61.733H35.7396C39.0266 61.733 41.7006 59.0588 41.7006 55.7719C41.7006 52.485 39.0268 49.8109 35.7396 49.8109H3.20859C3.25625 37.8539 7.80391 26.4975 16.0295 17.815C16.6357 17.1752 16.6082 16.1652 15.9684 15.559C15.3285 14.9527 14.3186 14.9803 13.7123 15.6201C4.8793 24.9437 0.0146484 37.1535 0.0146484 50.0002C0.0146484 53.5063 0.38125 57.0154 1.11055 60.4449C2.48418 66.9057 5.16699 73.0859 8.93691 78.5086C8.94687 78.523 8.95723 78.5371 8.96758 78.5512C8.97676 78.5652 8.98633 78.5795 8.99609 78.5934C18.3563 91.9977 33.6902 100 50.0148 100C55.7385 100 61.349 99.0357 66.7037 97.1389C68.6328 97.9723 70.757 98.4365 72.9885 98.4365C81.7543 98.4365 88.8857 91.3051 88.8857 82.5395C88.8857 82.1865 88.8734 81.8352 88.85 81.4857C89.3781 80.8361 89.8828 80.1848 90.3533 79.5436C95.7811 72.1441 99.1166 63.2561 99.8281 54.1061C100.506 45.3723 98.9982 36.6246 95.2533 28.6887ZM42.6773 38.7047C41.1502 38.7045 39.9078 37.4623 39.9078 35.9352C39.9078 34.408 41.15 33.1658 42.6771 33.1658H66.6014C67.0652 33.1658 67.5168 33.1127 67.9504 33.0117C67.9291 33.0303 67.9092 33.05 67.8881 33.0687C67.8344 33.1162 67.7818 33.1645 67.7299 33.2135C66.3148 34.5389 65.4252 36.4152 65.3062 38.3518C65.3016 38.4295 65.2986 38.5072 65.2963 38.5854C65.2949 38.6252 65.2918 38.6645 65.2912 38.7045L42.6773 38.7047ZM53.1574 53.7205C52.3045 53.7205 51.6103 53.0264 51.6103 52.1734C51.6103 51.3205 52.3045 50.6264 53.1574 50.6264H65.2898V53.7205H53.1574ZM50.0146 96.8084C35.7453 96.8084 22.2859 90.2748 13.4305 79.1932H29.3412C30.2225 79.1932 30.9369 78.4787 30.9369 77.5973C30.9369 76.716 30.2225 76.0016 29.3412 76.0016H11.0926C10.9842 75.8398 10.8764 75.6777 10.7699 75.5145C8.3834 71.8523 6.51172 67.8527 5.23789 63.6711C4.8373 62.3566 4.49473 61.0232 4.21133 59.675C4.20801 59.6586 4.20449 59.642 4.20117 59.6256C3.74551 57.443 3.4457 55.2275 3.30391 53.0023H35.7398C37.267 53.0023 38.5092 54.2445 38.5092 55.7717C38.5092 57.2988 37.267 58.5412 35.7398 58.5412H25.433C22.1461 58.5412 19.4721 61.215 19.4721 64.5021C19.4721 67.7893 22.1459 70.4633 25.433 70.4633H58.0811C59.3125 70.4633 60.3779 71.2877 60.7262 72.4258C59.8324 73.5068 59.0908 74.6934 58.5121 75.9676C58.3695 75.9906 58.2256 76.0023 58.0811 76.0023H35.299C34.4178 76.0023 33.7033 76.7168 33.7033 77.5982C33.7033 78.4795 34.4178 79.1939 35.299 79.1939H57.4535C57.2541 80.1096 57.1332 81.0479 57.1006 82C57.0705 82.874 57.1184 83.7451 57.2309 84.6123C57.6752 88.0076 59.1934 91.0678 61.4342 93.4418C61.4447 93.4531 61.4555 93.4641 61.466 93.4752C61.9086 93.9412 62.3795 94.3715 62.867 94.7893C62.8771 94.7975 62.8873 94.8061 62.8975 94.8145C62.9562 94.8629 63.0141 94.9123 63.0736 94.96C58.8455 96.1873 54.4666 96.8084 50.0146 96.8084ZM72.9885 95.2449C66.1217 95.2449 60.283 89.4566 60.283 82.5395C60.283 77.6496 63.1426 73.1385 67.568 71.0469C68.126 70.7832 68.4818 70.2213 68.4818 69.6041V40.3146V38.8289C68.4818 36.3438 70.5037 34.3219 72.9889 34.3219C75.474 34.3219 77.4959 36.3438 77.4959 38.8289V69.6043C77.4959 70.2178 77.8549 70.7846 78.4098 71.0469C82.7693 73.1078 85.6947 77.6791 85.6947 82.5395C85.6939 89.5453 79.9941 95.2449 72.9885 95.2449ZM91.1576 72.3355C91.1148 72.4141 91.0719 72.4924 91.0287 72.5705C90.1832 74.102 89.2559 75.576 88.2455 77.0037H87.8918C87.1721 75.0715 86.0746 73.3045 84.6891 71.7953C84.6805 71.7859 84.6721 71.7768 84.6635 71.7674C84.5705 71.6668 84.4803 71.5635 84.3848 71.4652H91.6203C91.4693 71.7568 91.3148 72.0469 91.1576 72.3355ZM93.1158 68.2734H80.6871V56.9121H96.3133C95.7342 60.8215 94.6619 64.6318 93.1158 68.2734Z"  />
</svg>
