<svg width="30" height="30" viewBox="0 0 30 30" fill="none" xmlns="http://www.w3.org/2000/svg">
<style>.dash{stroke:"#fbfbfb";stroke-width:2.5;stroke-linecap:round;stroke-linejoin:round}</style>
<path class="dash" d="M19.3333 10.6667V26.5556M26.5556 28H3.44444C3.06135 28 2.69395 27.8478 2.42307 27.5769C2.15218 27.306 2 26.9386 2 26.5556V3.44444C2 3.06135 2.15218 2.69395 2.42307 2.42307C2.69395 2.15218 3.06135 2 3.44444 2H26.5556C26.9386 2 27.306 2.15218 27.5769 2.42307C27.8478 2.69395 28 3.06135 28 3.44444V26.5556C28 26.9386 27.8478 27.306 27.5769 27.5769C27.306 27.8478 26.9386 28 26.5556 28ZM2 10.6667H28H2Z"/>
</svg>
