<svg width="30" height="30" viewBox="0 0 30 30" fill="none" xmlns="http://www.w3.org/2000/svg">
<style>.emission{stroke:#fbfbfb}</style>
<path class="emission" d="M26.9375 20.2251V15.0001C26.8835 14.0869 26.4827 13.2288 25.817 12.6013C25.1513 11.9738 24.271 11.6243 23.3562 11.6243C22.4414 11.6243 21.5611 11.9738 20.8955 12.6013C20.2298 13.2288 19.829 14.0869 19.775 15.0001V20.2251C18.9878 21.0774 18.5428 22.1901 18.525 23.3501C18.5207 24.1234 18.7044 24.8861 19.0601 25.5728C19.4158 26.2594 19.933 26.8494 20.5671 27.2919C21.2012 27.7345 21.9334 28.0164 22.7005 28.1135C23.4677 28.2106 24.247 28.1199 24.9714 27.8492C25.6958 27.5785 26.3436 27.1359 26.8591 26.5595C27.3746 25.9831 27.7424 25.2901 27.9309 24.5401C28.1194 23.7902 28.1229 23.0056 27.9411 22.254C27.7594 21.5023 27.3978 20.8061 26.8875 20.2251H26.9375Z" stroke="#FBFBFB" stroke-width="1.5" stroke-miterlimit="10"/>
<path class="emission" d="M23.35 24.5376C24.0058 24.5376 24.5375 24.0059 24.5375 23.3501C24.5375 22.6943 24.0058 22.1626 23.35 22.1626C22.6941 22.1626 22.1625 22.6943 22.1625 23.3501C22.1625 24.0059 22.6941 24.5376 23.35 24.5376Z" stroke="#FBFBFB" stroke-width="1.5" stroke-miterlimit="10"/>
<path fill="#fbfbfb" d="M24.1 15C24.1 14.5858 23.7642 14.25 23.35 14.25C22.9358 14.25 22.6 14.5858 22.6 15H24.1ZM22.6 15V22.225H24.1V15H22.6Z"/>
<path class="emission" d="M27 20.3251C28.2619 17.4871 28.4764 14.2936 27.6055 11.3124C26.7346 8.33111 24.8347 5.7553 22.2436 4.04288C19.6524 2.33046 16.538 1.5924 13.454 1.95991C10.37 2.32742 7.51618 3.7767 5.40003 6.05006C3.33545 8.2606 2.09774 11.1164 1.89624 14.1344C1.69473 17.1524 2.54181 20.1474 4.29418 22.6128C6.04656 25.0781 8.59668 26.8626 11.5132 27.6643C14.4298 28.466 17.5337 28.2358 20.3 27.0126" stroke="#FBFBFB" stroke-width="1.5" stroke-miterlimit="10"/>
<path class="emission" d="M19.5 20.5749L19.325 20.5124C16.9205 19.6742 14.3242 19.5529 11.852 20.1632C9.37982 20.7734 7.13825 22.089 5.40002 23.9499" stroke="#FBFBFB" stroke-width="1.5" stroke-miterlimit="10"/>
<path class="emission" d="M5.40002 6.05005C6.62672 7.36915 8.11252 8.42082 9.7644 9.13922C11.4163 9.85761 13.1987 10.2273 15 10.225C16.8014 10.2273 18.5838 9.85761 20.2356 9.13922C21.8875 8.42082 23.3733 7.36915 24.6 6.05005" stroke="#FBFBFB" stroke-width="1.5" stroke-miterlimit="10"/>
<path class="emission" d="M19.25 20.95C19.2879 20.8066 19.313 20.6602 19.325 20.5125C19.6294 18.6908 19.7799 16.8468 19.775 15C19.7799 13.1531 19.6294 11.3091 19.325 9.48745C18.6 5.17495 17.0625 2.14995 15.25 1.88745H14.75C12.9375 2.14995 11.4 5.17495 10.675 9.48745C10.3706 11.3091 10.22 13.1531 10.225 15C10.22 16.8468 10.3706 18.6908 10.675 20.5125C11.4 24.825 12.9375 27.85 14.75 28.1125H15.25C16.575 27.925 17.75 26.225 18.5875 23.6375" stroke="#FBFBFB" stroke-width="1.5" stroke-miterlimit="10"/>
<path class="emission" d="M1.875 15H19.775" stroke="#FBFBFB" stroke-width="1.5" stroke-miterlimit="10"/>
</svg>
