<svg width="30" height="30" viewBox="0 0 30 30" fill="none" xmlns="http://www.w3.org/2000/svg">
<path fill-rule="evenodd" clip-rule="evenodd" d="M15 3.75C8.7868 3.75 3.75 8.7868 3.75 15C3.75 21.2132 8.7868 26.25 15 26.25C20.6179 26.25 25.2741 22.1321 26.1147 16.75H14.8915L17.6819 19.5403C18.3653 20.2238 18.3653 21.3318 17.6819 22.0152C16.9985 22.6986 15.8904 22.6986 15.207 22.0152L9.42923 16.2374C8.74581 15.554 8.74581 14.446 9.42923 13.7626L15.207 7.98479C15.8904 7.30137 16.9985 7.30137 17.6819 7.98479C18.3653 8.6682 18.3653 9.77624 17.6819 10.4597L14.8915 13.25H26.1147C25.2741 7.86792 20.6179 3.75 15 3.75ZM0.25 15C0.25 6.8538 6.8538 0.25 15 0.25C23.1462 0.25 29.75 6.8538 29.75 15C29.75 23.1462 23.1462 29.75 15 29.75C6.8538 29.75 0.25 23.1462 0.25 15Z" fill="#FBFBFB"/>
</svg>
