<svg xmlns="http://www.w3.org/2000/svg" width="30.92" height="31.261" viewBox="0 0 30.92 31.261">
  <g id="Group_31301" data-name="Group 31301" transform="translate(6894.136 -2319.614)">
    <g id="add_5_" data-name="add (5)" transform="translate(-6879.968 2333.888)">
      <g id="Group_31298" data-name="Group 31298">
        <g id="Group_31297" data-name="Group 31297">
          <path id="Path_48739" data-name="Path 48739" d="M8.376,0a8.376,8.376,0,1,0,8.376,8.376A8.385,8.385,0,0,0,8.376,0Zm0,15.455a7.079,7.079,0,1,1,7.079-7.079A7.087,7.087,0,0,1,8.376,15.455Z" fill="#16161d"/>
        </g>
      </g>
      <g id="Group_31300" data-name="Group 31300" transform="translate(4.483 4.425)">
        <g id="Group_31299" data-name="Group 31299">
          <path id="Path_48740" data-name="Path 48740" d="M144.159,138.482h-2.6v-2.6a.649.649,0,1,0-1.3,0v2.6h-2.6a.649.649,0,1,0,0,1.3h2.6v2.6a.649.649,0,0,0,1.3,0v-2.6h2.6a.649.649,0,0,0,0-1.3Z" transform="translate(-137.022 -135.238)" fill="#16161d"/>
        </g>
      </g>
    </g>
    <path id="Path_48757" data-name="Path 48757" d="M-6871.012,2334.771s.018-5.5,0-6.048a1.048,1.048,0,0,0-.263-.754s-6.991-6.973-7.307-7.289a1.073,1.073,0,0,0-.7-.314h-13.093a.932.932,0,0,0-1,1c-.017,1.07,0,27.874,0,27.874a.808.808,0,0,0,.913.886h21.455" transform="translate(0)" fill="none" stroke="#16161d" stroke-width="1.5"/>
    <path id="Path_48758" data-name="Path 48758" d="M-6787.359,2320.365v7.069s-.175.86.86.877,7.1,0,7.1,0" transform="translate(-91.657)" fill="none" stroke="#16161d" stroke-width="1.5"/>
  </g>
</svg>
