<svg width="27" height="30" viewBox="0 0 27 30" fill="none" xmlns="http://www.w3.org/2000/svg">
<path d="M24.2156 18.4378C24.4998 18.7224 24.7252 19.0602 24.8789 19.432C25.0326 19.8038 25.1115 20.2022 25.1111 20.6044V20.6044C25.1111 21.4166 24.7885 22.1955 24.2142 22.7698C23.6399 23.344 22.861 23.6667 22.0489 23.6667H5.06222C4.25007 23.6667 3.47118 23.344 2.89691 22.7698C2.32263 22.1955 2 21.4166 2 20.6044V20.6044C1.99965 20.2022 2.07855 19.8038 2.23222 19.432C2.38588 19.0602 2.61129 18.7224 2.89556 18.4378L4.88889 16.4444V10.6667C4.88889 8.36812 5.80198 6.16372 7.4273 4.53841C9.05261 2.91309 11.257 2 13.5556 2V2C15.8541 2 18.0585 2.91309 19.6838 4.53841C21.3091 6.16372 22.2222 8.36812 22.2222 10.6667V16.4444L24.2156 18.4378ZM17.8889 23.6667H9.22222C9.22222 24.8159 9.67877 25.9181 10.4914 26.7308C11.3041 27.5435 12.4063 28 13.5556 28C14.7048 28 15.807 27.5435 16.6197 26.7308C17.4323 25.9181 17.8889 24.8159 17.8889 23.6667Z" stroke="#FBFBFB" stroke-width="2.5" stroke-linecap="round" stroke-linejoin="round"/>
</svg>
