<svg width="100" height="100" viewBox="0 0 100 100" xmlns="http://www.w3.org/2000/svg">
<style>.nox{fill:#ffffff}</style>
<path class="nox" fill-rule="evenodd" clip-rule="evenodd" d="M88.5255 88C89.7456 88 90.8822 87.3987 91.4615 86.392C95.6179 79.1694 98 70.7634 98 61.7918C98 34.8448 76.5097 13 50 13C23.4903 13 2 34.8448 2 61.7918C2 70.7634 4.3821 79.1694 8.53844 86.392C9.11775 87.3987 10.2544 88 11.4745 88V88C14.315 88 16.0085 84.8977 14.67 82.5489C11.1913 76.4441 9.2 69.3543 9.2 61.7918C9.2 38.8869 27.4668 20.3188 50 20.3188C72.5332 20.3188 90.8 38.8869 90.8 61.7918C90.8 69.3543 88.8087 76.4441 85.33 82.5489C83.9915 84.8977 85.685 88 88.5255 88V88Z"   />
<path class="nox" fill-rule="evenodd" clip-rule="evenodd" d="M28.324 28.9938C29.023 28.487 29.9833 28.6372 30.469 29.3293L33.6545 33.869C34.1402 34.5611 33.9672 35.533 33.2682 36.0398C32.5692 36.5466 31.6089 36.3964 31.1232 35.7043L27.9377 31.1647C27.452 30.4726 27.625 29.5007 28.324 28.9938Z"   />
<path class="nox" fill-rule="evenodd" clip-rule="evenodd" d="M67.105 36.0361C66.406 35.5293 66.2331 34.5574 66.7187 33.8653L69.9043 29.3256C70.3899 28.6335 71.3503 28.4833 72.0493 28.9901C72.7483 29.4969 72.9212 30.4688 72.4356 31.1609L69.25 35.7006C68.7643 36.3927 67.804 36.5429 67.105 36.0361Z"   />
<path class="nox" fill-rule="evenodd" clip-rule="evenodd" d="M16.0678 44.4563C16.5346 43.7529 17.4912 43.5791 18.2044 44.0681L22.7523 47.1863C23.4656 47.6753 23.6654 48.642 23.1986 49.3454C22.7319 50.0488 21.7753 50.2226 21.062 49.7336L16.5141 46.6154C15.8009 46.1264 15.601 45.1597 16.0678 44.4563Z"   />
<path class="nox" fill-rule="evenodd" clip-rule="evenodd" d="M50.1484 22.5896C51.0321 22.5896 51.7484 23.2612 51.7484 24.0896L51.7484 29.6343C51.7484 30.4628 51.0321 31.1343 50.1484 31.1343C49.2648 31.1343 48.5484 30.4628 48.5484 29.6343L48.5484 24.0896C48.5484 23.2612 49.2648 22.5896 50.1484 22.5896Z"   />
<path class="nox" fill-rule="evenodd" clip-rule="evenodd" d="M77.7864 49.3459C77.3197 48.6425 77.5195 47.6758 78.2328 47.1868L82.7806 44.0686C83.4939 43.5796 84.4505 43.7534 84.9172 44.4568C85.384 45.1602 85.1842 46.1269 84.4709 46.6159L79.9231 49.7341C79.2098 50.2231 78.2532 50.0494 77.7864 49.3459Z"   />
<path class="nox" fill-rule="evenodd" clip-rule="evenodd" d="M11.6266 64.6536C11.6266 63.8251 12.3429 63.1536 13.2266 63.1536H18.8389C19.7226 63.1536 20.4389 63.8251 20.4389 64.6536C20.4389 65.482 19.7226 66.1536 18.8389 66.1536H13.2266C12.3429 66.1536 11.6266 65.482 11.6266 64.6536Z"   />
<path class="nox" fill-rule="evenodd" clip-rule="evenodd" d="M79.5641 64.6536C79.5641 63.8251 80.2804 63.1536 81.1641 63.1536H86.7764C87.6601 63.1536 88.3764 63.8251 88.3764 64.6536C88.3764 65.482 87.6601 66.1536 86.7764 66.1536H81.1641C80.2804 66.1536 79.5641 65.482 79.5641 64.6536Z"   />
<path class="nox" d="M56.0873 59.8717C57.7719 62.4314 57.0961 65.8946 54.5779 67.607C52.0597 69.3193 48.6527 68.6324 46.9682 66.0726C45.2836 63.5129 46.9682 66.0726 35.9111 39.242C56.0873 59.8717 54.4028 57.312 56.0873 59.8717Z"   />
<path class="nox" d="M46.6551 78.7751V85.6001H45.1551L42.2301 81.0251V85.6001H40.7301V78.7751H42.2301L45.1601 83.3548V78.7751H46.6551Z"   />
<path class="nox" d="M53.9401 82.0283V82.3517C53.9401 82.8705 53.8651 83.3361 53.7151 83.7486C53.5651 84.1611 53.3534 84.5126 53.0801 84.8033C52.8068 85.0908 52.4801 85.3111 52.1001 85.4642C51.7234 85.6173 51.3051 85.6939 50.8451 85.6939C50.3884 85.6939 49.9701 85.6173 49.5901 85.4642C49.2134 85.3111 48.8868 85.0908 48.6101 84.8033C48.3334 84.5126 48.1184 84.1611 47.9651 83.7486C47.8151 83.3361 47.7401 82.8705 47.7401 82.3517V82.0283C47.7401 81.5064 47.8151 81.0408 47.9651 80.6314C48.1151 80.2189 48.3268 79.8673 48.6001 79.5767C48.8768 79.2861 49.2034 79.0642 49.5801 78.9111C49.9601 78.758 50.3784 78.6814 50.8351 78.6814C51.2951 78.6814 51.7134 78.758 52.0901 78.9111C52.4701 79.0642 52.7968 79.2861 53.0701 79.5767C53.3468 79.8673 53.5601 80.2189 53.7101 80.6314C53.8634 81.0408 53.9401 81.5064 53.9401 82.0283ZM52.4251 82.3517V82.0189C52.4251 81.6564 52.3901 81.3376 52.3201 81.0626C52.2501 80.7876 52.1468 80.5564 52.0101 80.3689C51.8734 80.1814 51.7068 80.0408 51.5101 79.947C51.3134 79.8501 51.0884 79.8017 50.8351 79.8017C50.5818 79.8017 50.3568 79.8501 50.1601 79.947C49.9668 80.0408 49.8018 80.1814 49.6651 80.3689C49.5318 80.5564 49.4301 80.7876 49.3601 81.0626C49.2901 81.3376 49.2551 81.6564 49.2551 82.0189V82.3517C49.2551 82.7111 49.2901 83.0298 49.3601 83.308C49.4301 83.583 49.5334 83.8158 49.6701 84.0064C49.8068 84.1939 49.9734 84.3361 50.1701 84.433C50.3668 84.5298 50.5918 84.5783 50.8451 84.5783C51.0984 84.5783 51.3234 84.5298 51.5201 84.433C51.7168 84.3361 51.8818 84.1939 52.0151 84.0064C52.1484 83.8158 52.2501 83.583 52.3201 83.308C52.3901 83.0298 52.4251 82.7111 52.4251 82.3517Z"   />
<path class="nox" d="M56.0901 80.5283L56.9851 82.0705L57.9051 80.5283H59.4401L57.9101 83.008L59.5101 85.6001H57.9701L56.9951 83.9689L56.0201 85.6001H54.4801L56.0801 83.008L54.5501 80.5283H56.0901Z"   />
</svg>
