<svg width="27" height="30" viewBox="0 0 27 30" fill="none" xmlns="http://www.w3.org/2000/svg">
<path d="M20.7778 9.22222C20.7778 10.6506 20.3542 12.047 19.5606 13.2347C18.767 14.4224 17.6391 15.3481 16.3194 15.8947C14.9997 16.4413 13.5475 16.5843 12.1466 16.3057C10.7456 16.027 9.45872 15.3392 8.44867 14.3291C7.43863 13.3191 6.75078 12.0322 6.47211 10.6312C6.19344 9.23023 6.33646 7.77809 6.88309 6.4584C7.42973 5.13871 8.35542 4.01075 9.5431 3.21716C10.7308 2.42358 12.1271 2 13.5556 2C15.471 2 17.308 2.76091 18.6624 4.11534C20.0169 5.46977 20.7778 7.30677 20.7778 9.22222ZM15 16.4444H12.1111C9.42948 16.4444 6.85768 17.5097 4.96148 19.4059C3.06527 21.3021 2 23.8739 2 26.5556V26.5556C2 26.9386 2.15218 27.306 2.42307 27.5769C2.69395 27.8478 3.06135 28 3.44444 28H23.6667C24.0498 28 24.4172 27.8478 24.688 27.5769C24.9589 27.306 25.1111 26.9386 25.1111 26.5556C25.1111 23.8739 24.0458 21.3021 22.1496 19.4059C20.2534 17.5097 17.6816 16.4444 15 16.4444V16.4444Z" stroke="#FBFBFB" stroke-width="2.5" stroke-linecap="round" stroke-linejoin="round"/>
</svg>
