<svg width="101" height="100" viewBox="0 0 101 100" xmlns="http://www.w3.org/2000/svg">
<style>.cls-1{fill:#ffffff}</style>
<path class="cls-1" fill-rule="evenodd" clip-rule="evenodd" d="M32.0001 31.5V45C32.0001 46.3807 30.8808 47.5 29.5001 47.5C28.1194 47.5 27.0001 46.3807 27.0001 45V30C27.0001 28.067 28.5671 26.5 30.5001 26.5H55.4506L74.161 43.1315C75.193 44.0488 75.2859 45.629 74.3686 46.6609C73.4513 47.6929 71.8712 47.7858 70.8392 46.8685L53.5496 31.5H32.0001Z"  />
<path class="cls-1" fill-rule="evenodd" clip-rule="evenodd" d="M11.1099 48.5L15.9417 70.4628C16.2384 71.8113 15.3857 73.145 14.0373 73.4416C12.6888 73.7383 11.3552 72.8856 11.0585 71.5372L5.69212 47.1446C5.28031 45.2727 6.70541 43.5 8.62206 43.5H95.1619C97.4335 43.5 98.8809 45.9267 97.8016 47.9254L84.6999 72.1879C84.0438 73.4028 82.5271 73.8558 81.3122 73.1998C80.0973 72.5437 79.6443 71.027 80.3003 69.8121L91.8089 48.5H11.1099Z"  />
<path class="cls-1" fill-rule="evenodd" clip-rule="evenodd" d="M13.764 9.88196C14.3815 8.64702 15.8832 8.14646 17.1181 8.76393C18.0544 9.23206 19.3271 9.80923 20.6339 10.2638C21.9863 10.7341 23.1712 11 24.0001 11C25.2387 11 26.272 10.7998 27.3459 10.5601C27.4555 10.5356 27.5692 10.5097 27.6865 10.4829C28.629 10.268 29.8042 10 31.0001 10C32.468 10 34.1069 10.153 36.0417 11.0398C37.9114 11.8968 39.9024 13.3667 42.2679 15.7322C43.2442 16.7085 43.2442 18.2915 42.2679 19.2678C41.2916 20.2441 39.7086 20.2441 38.7323 19.2678C36.5978 17.1333 35.0888 16.1032 33.9585 15.5852C32.8933 15.097 32.0322 15 31.0001 15C30.3982 15 29.7918 15.1359 28.7294 15.3741C28.6351 15.3952 28.5372 15.4172 28.4353 15.4399C27.2696 15.7002 25.8029 16 24.0001 16C22.329 16 20.5139 15.5158 18.9913 14.9862C17.4231 14.4408 15.9458 13.7679 14.8821 13.2361C13.6471 12.6186 13.1466 11.1169 13.764 9.88196Z"  />
<path class="cls-1" fill-rule="evenodd" clip-rule="evenodd" d="M35.4677 85.1277C33.8755 84.5137 32.848 84.3945 32.1064 84.5799C29.119 85.3268 27.5169 85.7916 26.0058 86.4073C24.4735 87.0315 22.9774 87.8328 20.1972 89.3493C17.0507 91.0656 13.0495 90.4436 9.94393 89.5115C6.67779 88.5312 3.57745 86.9522 1.68421 85.7802C0.510243 85.0535 0.147694 83.5126 0.874438 82.3387C1.60118 81.1647 3.14202 80.8021 4.31599 81.5289C5.92275 82.5235 8.62241 83.8945 11.3813 84.7226C14.3007 85.5988 16.5495 85.6435 17.803 84.9598C20.5228 83.4762 22.2767 82.5275 24.1194 81.7768C25.9833 81.0174 27.8812 80.4823 30.8938 79.7292C33.1522 79.1646 35.3747 79.7329 37.2668 80.4626C38.5957 80.9751 40.0393 81.6881 41.4137 82.3669C41.9615 82.6374 42.4983 82.9025 43.0124 83.1474C46.8972 84.9973 50.4247 86.176 54.1358 84.8087C56.1849 84.0537 57.7875 83.2718 59.2741 82.5463C59.4102 82.4799 59.5453 82.414 59.6796 82.3487C61.2304 81.5941 62.8368 80.8296 64.6021 80.4678C68.3993 79.6896 72.2333 80.879 78.2863 84.5108C79.5874 85.2914 81.3199 85.6131 83.4081 85.5166C85.4838 85.4207 87.713 84.9203 89.8227 84.2666C91.92 83.6167 93.8129 82.8431 95.2152 82.2454C95.4561 82.1427 95.6932 82.0405 95.9176 81.9438C96.3147 81.7728 96.6719 81.6188 96.9397 81.5096C97.1378 81.4288 97.4029 81.3238 97.6498 81.2527L97.6551 81.2512C97.7429 81.2259 98.0517 81.1369 98.4283 81.1321C98.5898 81.1301 99.1246 81.131 99.701 81.4502C100.03 81.6322 100.387 81.9277 100.65 82.3736C100.914 82.8198 101 83.2766 101 83.6545C101 84.9163 100.065 85.9598 98.8505 86.1302C98.8433 86.1331 98.8358 86.1362 98.828 86.1393C98.601 86.2319 98.3234 86.3516 97.9711 86.5035C97.7403 86.603 97.4774 86.7164 97.1757 86.845C95.7186 87.466 93.6427 88.3174 91.3025 89.0425C88.9747 89.7638 86.2977 90.3884 83.6389 90.5113C80.9928 90.6335 78.1628 90.2676 75.7139 88.7983C69.8774 85.2964 67.4614 84.9858 65.6059 85.366C64.5449 85.5834 63.4743 86.0627 61.8673 86.8447C61.7329 86.9101 61.5957 86.9771 61.4555 87.0455C59.9733 87.7693 58.1606 88.6544 55.8644 89.5004C50.0755 91.6331 44.853 89.5618 40.8628 87.6617C40.1834 87.3382 39.5544 87.0273 38.9602 86.7336C37.6886 86.1051 36.5758 85.555 35.4677 85.1277Z"  />
<path class="cls-1" d="M48.0001 62.5C48.0001 63.8807 46.8808 65 45.5001 65C44.1194 65 43.0001 63.8807 43.0001 62.5C43.0001 61.1193 44.1194 60 45.5001 60C46.8808 60 48.0001 61.1193 48.0001 62.5Z"  />
</svg>
